<svg xmlns="http://www.w3.org/2000/svg" viewBox="0 0 13.59 82.22"><defs><style>.cls-1{fill:#fff;}</style></defs><g id="Layer_2" data-name="Layer 2"><g id="text"><path class="cls-1" d="M9.62,82.22H4a4,4,0,0,1-4-4V72.6a4,4,0,0,1,4-4H9.62a4,4,0,0,1,4,4v5.64A4,4,0,0,1,9.62,82.22ZM4,69.89a2.7,2.7,0,0,0-2.7,2.71v5.64A2.71,2.71,0,0,0,4,81H9.62a2.72,2.72,0,0,0,2.71-2.71V72.6a2.71,2.71,0,0,0-2.71-2.71Z"/><path class="cls-1" d="M11.28,71.79a.85.85,0,1,1-.85-.84A.85.85,0,0,1,11.28,71.79Z"/><path class="cls-1" d="M6.8,78.93a3.52,3.52,0,1,1,3.51-3.51A3.52,3.52,0,0,1,6.8,78.93Zm0-5.76A2.25,2.25,0,1,0,9,75.42,2.25,2.25,0,0,0,6.8,73.17Z"/><path class="cls-1" d="M4.07,53.43V54a4.43,4.43,0,0,0-.7.31,1.11,1.11,0,0,0-.37.33.88.88,0,0,0-.15.4,6,6,0,0,0,0,.71v.62l2.72.83V56.8a2.76,2.76,0,0,0-.07-.66.9.9,0,0,0-.2-.39A.79.79,0,0,0,5,55.51a3.87,3.87,0,0,0-.51-.2v-.52l2.87.88v.52a2.36,2.36,0,0,0-.66-.14c-.4,0-.59.28-.59.83v.44l2,.61a1.91,1.91,0,0,0,.48.1.4.4,0,0,0,.31-.12A.61.61,0,0,0,9,57.63a1,1,0,0,0,0-.28V57.1l.49.15v3.2l-.49-.15a.66.66,0,0,0-.22-.56,1.68,1.68,0,0,0-.6-.28L3.71,58.07A2.13,2.13,0,0,0,3.28,58a.39.39,0,0,0-.41.22,1.39,1.39,0,0,0-.08.52l-.5-.12V53.49Z"/><path class="cls-1" d="M6.91,48a2.77,2.77,0,0,1,2,.82,3,3,0,0,1,.63.94A3,3,0,0,1,9.73,51a2.45,2.45,0,0,1-.24,1.11,1.83,1.83,0,0,1-.69.74,1.91,1.91,0,0,1-1,.27,2.59,2.59,0,0,1-1.36-.4A3,3,0,0,1,5,50.13,2.4,2.4,0,0,1,5.28,49a1.74,1.74,0,0,1,.7-.72A1.9,1.9,0,0,1,6.91,48ZM6.54,49.3a1.29,1.29,0,0,0-.78.21.74.74,0,0,0-.29.63,1,1,0,0,0,.3.72,2.38,2.38,0,0,0,.76.52,4.48,4.48,0,0,0,.91.32,3.7,3.7,0,0,0,.79.11A1.29,1.29,0,0,0,9,51.6.7.7,0,0,0,9.28,51a1.09,1.09,0,0,0-.3-.76,2.49,2.49,0,0,0-.74-.54,4.83,4.83,0,0,0-.93-.31A3.6,3.6,0,0,0,6.54,49.3Z"/><path class="cls-1" d="M2.16,42.81l6.16,1.88a2.91,2.91,0,0,0,.57.15A.25.25,0,0,0,9,44.79a.14.14,0,0,0,.05-.11c0-.09-.08-.22-.25-.39a2.11,2.11,0,0,0-.58-.39v-.5a4.74,4.74,0,0,1,1,.7,1.43,1.43,0,0,1,.48,1.1.92.92,0,0,1-.22.65.71.71,0,0,1-.54.24,3.17,3.17,0,0,1-.81-.16L3.68,44.55a2.53,2.53,0,0,0-.59-.13.25.25,0,0,0-.25.15,2.27,2.27,0,0,0,0,.57L2.29,45v-.57c0-.25,0-.47,0-.68a2.7,2.7,0,0,0-.1-.58Z"/><path class="cls-1" d="M2.16,38.27l6.16,1.88a2.58,2.58,0,0,0,.57.14.24.24,0,0,0,.15,0,.16.16,0,0,0,.05-.11c0-.1-.08-.22-.25-.39a2.11,2.11,0,0,0-.58-.39v-.51a4.8,4.8,0,0,1,1,.71,1.43,1.43,0,0,1,.48,1.1.93.93,0,0,1-.22.65.71.71,0,0,1-.54.24,2.89,2.89,0,0,1-.81-.17L3.68,40a2.53,2.53,0,0,0-.59-.13.25.25,0,0,0-.25.15,2.27,2.27,0,0,0,0,.57l-.5-.13V39.9c0-.25,0-.48,0-.68a2.91,2.91,0,0,0-.1-.59Z"/><path class="cls-1" d="M6.91,32a2.73,2.73,0,0,1,1,.21,2.94,2.94,0,0,1,.91.62,2.88,2.88,0,0,1,.63.94A3,3,0,0,1,9.73,35a2.45,2.45,0,0,1-.24,1.11,1.9,1.9,0,0,1-.69.74,2,2,0,0,1-1,.26,2.5,2.5,0,0,1-1.36-.4,2.89,2.89,0,0,1-1-1.08A3,3,0,0,1,5,34.1,2.4,2.4,0,0,1,5.28,33a1.74,1.74,0,0,1,.7-.72A1.9,1.9,0,0,1,6.91,32Zm-.37,1.27a1.29,1.29,0,0,0-.78.22.73.73,0,0,0-.29.62,1,1,0,0,0,.3.72,2.4,2.4,0,0,0,.76.53,5.19,5.19,0,0,0,.91.32,3.62,3.62,0,0,0,.79.1A1.29,1.29,0,0,0,9,35.57.69.69,0,0,0,9.28,35a1.08,1.08,0,0,0-.3-.75,2.18,2.18,0,0,0-.74-.54,4.23,4.23,0,0,0-.93-.31A3.71,3.71,0,0,0,6.54,33.27Z"/><path class="cls-1" d="M5.93,21.87a3.41,3.41,0,0,1,1.24.26,4.71,4.71,0,0,1,1.24.72,3.77,3.77,0,0,1,1,1,2.26,2.26,0,0,1,.36,1.19,1.28,1.28,0,0,1-.88,1.25,8,8,0,0,1,.6,1.06,2.71,2.71,0,0,1,.28,1.17,1.28,1.28,0,0,1-.3.85,1.06,1.06,0,0,1-.84.36A1.47,1.47,0,0,1,8,29.63a1.86,1.86,0,0,1-.52-.36c-.16-.15-.35-.36-.57-.61a4.12,4.12,0,0,0-.3-.32c-.13-.11-.2-.19-.24-.21L6.13,28l-.21-.12a3.2,3.2,0,0,1,.19.36.88.88,0,0,1,.06.33,1.19,1.19,0,0,1-.15.53.86.86,0,0,0-.12.34c0,.15.11.26.32.33v.45C5.42,30,5,29.6,5,29.13a1.36,1.36,0,0,1,.39-.8A.64.64,0,0,0,5.55,28a.23.23,0,0,0-.09-.2.58.58,0,0,0-.25-.12A.22.22,0,0,1,5,27.45a.19.19,0,0,1,.22-.22,2,2,0,0,1,.74.23c.32.16.55.28.69.37l.59.35.4.2A2.42,2.42,0,0,0,8,28.5a2.09,2.09,0,0,0,.35,0,.57.57,0,0,0,.47-.19A.71.71,0,0,0,9,27.91a2.56,2.56,0,0,0-.57-1.47,4,4,0,0,1-.56.06A3.53,3.53,0,0,1,7,26.38,4.25,4.25,0,0,1,6.07,26a2.24,2.24,0,0,1-.75-.53,1,1,0,0,1-.3-.69.56.56,0,0,1,.28-.5,1,1,0,0,1,.61-.19,3.05,3.05,0,0,1,2.16,1.23c.56-.2.84-.52.84-.95a1.24,1.24,0,0,0-.34-.84,2.38,2.38,0,0,0-.85-.6,2.32,2.32,0,0,0-1-.23,4.17,4.17,0,0,0-.85.15.75.75,0,0,1-.26,0,.67.67,0,0,1-.47-.16A.47.47,0,0,1,5,22.42.44.44,0,0,1,5.27,22,1.15,1.15,0,0,1,5.93,21.87Zm0,2.68a.53.53,0,0,0-.3.09.29.29,0,0,0-.14.25q0,.28.42.48A2.73,2.73,0,0,0,7,25.56a2.7,2.7,0,0,0,.63-.07,6.08,6.08,0,0,0-.77-.64A1.57,1.57,0,0,0,5.92,24.55Z"/><path class="cls-1" d="M2.29,5.14l.5.15a2,2,0,0,0,.08.63.63.63,0,0,0,.29.33,3.71,3.71,0,0,0,.68.23L8.09,7.57a2.2,2.2,0,0,0,.5.09A.39.39,0,0,0,9,7.42a1.63,1.63,0,0,0,.1-.66l.49.15v3.4l-.49-.15A2.34,2.34,0,0,0,9,9.55a.55.55,0,0,0-.22-.31A2.22,2.22,0,0,0,8.26,9l-5-1.27,6.33,4.3v.7l-6.32.4L8,15a1.81,1.81,0,0,0,.54.16.38.38,0,0,0,.4-.25,2.75,2.75,0,0,0,.14-.67l.49.15v2.41l-.49-.16A1,1,0,0,0,8.67,16a3,3,0,0,0-.86-.48l-4.16-1.6a1.05,1.05,0,0,0-.33-.06.44.44,0,0,0-.39.19.88.88,0,0,0-.14.55v.13l-.5-.15V11.91l5.56-.39L2.29,7.73Z"/><path class="cls-1" d="M5.91,0a1.2,1.2,0,0,1,.51.13A2.13,2.13,0,0,1,7,.63a3.19,3.19,0,0,1,.57,1,6.61,6.61,0,0,1,.34,1.66v.13a1.89,1.89,0,0,0,.39.05.75.75,0,0,0,.58-.2.8.8,0,0,0,.17-.55A2,2,0,0,0,8.22,1.2V.63a4,4,0,0,1,1,1,2.63,2.63,0,0,1,.5,1.6,1.75,1.75,0,0,1-.35,1.11,1.21,1.21,0,0,1-1,.46,3.17,3.17,0,0,1-1.6-.46A3.51,3.51,0,0,1,5.51,3.1,3.12,3.12,0,0,1,5,1.39,1.74,1.74,0,0,1,5.27.32.79.79,0,0,1,5.91,0Zm0,1.13a.44.44,0,0,0-.32.13.41.41,0,0,0-.15.34,1,1,0,0,0,.26.69,2.34,2.34,0,0,0,.61.52A4,4,0,0,0,7,3.17a4.74,4.74,0,0,1,.45.17,3.63,3.63,0,0,0-.61-1.65A1.23,1.23,0,0,0,5.89,1.13Z"/></g></g></svg>