<svg xmlns="http://www.w3.org/2000/svg" viewBox="0 0 13.59 13.6"><defs><style>.cls-1{fill:#fff;}</style></defs><g id="Layer_2" data-name="Layer 2"><g id="text"><path class="cls-1" d="M9.62,13.6H4a4,4,0,0,1-4-4V4A4,4,0,0,1,4,0H9.62a4,4,0,0,1,4,4V9.62A4,4,0,0,1,9.62,13.6ZM4,1.27A2.7,2.7,0,0,0,1.27,4V9.62A2.71,2.71,0,0,0,4,12.33H9.62a2.72,2.72,0,0,0,2.71-2.71V4a2.71,2.71,0,0,0-2.71-2.7Z"/><path class="cls-1" d="M11.28,3.17a.85.85,0,1,1-.85-.85A.85.85,0,0,1,11.28,3.17Z"/><path class="cls-1" d="M6.8,10.31A3.52,3.52,0,1,1,10.31,6.8,3.52,3.52,0,0,1,6.8,10.31Zm0-5.76A2.25,2.25,0,1,0,9,6.8,2.25,2.25,0,0,0,6.8,4.55Z"/></g></g></svg>