<svg xmlns="http://www.w3.org/2000/svg" viewBox="0 0 9.43 96.14"><defs><style>.cls-1{fill:#fff;}.cls-2{fill:none;stroke:#fff;stroke-miterlimit:10;stroke-width:0.5px;}</style></defs><g id="Layer_2" data-name="Layer 2"><g id="text"><path class="cls-1" d="M8.12,6.55,5.74,6.19V5.63a4.18,4.18,0,0,0,.83-.2,1.9,1.9,0,0,0,.76-.5,1.46,1.46,0,0,0,.35-1A1.3,1.3,0,0,0,7.39,3a1,1,0,0,0-.77-.34A1.22,1.22,0,0,0,6,2.84a2.54,2.54,0,0,0-.58.44c-.19.19-.4.41-.62.67A6.6,6.6,0,0,1,3.64,5.07a2.12,2.12,0,0,1-1.24.38,2.28,2.28,0,0,1-1.14-.31,2.48,2.48,0,0,1-.89-.9A2.68,2.68,0,0,1,0,2.87a2.71,2.71,0,0,1,.09-.68,2.84,2.84,0,0,1,.28-.65A3.36,3.36,0,0,1,.89.93,2.63,2.63,0,0,0,.23.55V0L3,.38V.93a3.12,3.12,0,0,0-1.13.21,1.9,1.9,0,0,0-.74.48,1.76,1.76,0,0,0-.4.64,1.71,1.71,0,0,0-.13.65,1.23,1.23,0,0,0,.16.61A1.11,1.11,0,0,0,1.19,4a1.12,1.12,0,0,0,.6.16A1.2,1.2,0,0,0,2.36,4a1.92,1.92,0,0,0,.49-.36c.17-.15.44-.43.81-.83a6.12,6.12,0,0,1,1.2-1,2,2,0,0,1,1-.3,2.23,2.23,0,0,1,1.16.34,2.48,2.48,0,0,1,.86.9,2.36,2.36,0,0,1,.33,1.2A2.47,2.47,0,0,1,7.5,5.63a.91.91,0,0,1,.13.1l.19.13.3.15Z"/><path class="cls-1" d="M3.91,12.63a.87.87,0,0,1-.59-.21.67.67,0,0,1-.24-.54.55.55,0,0,1,.14-.41.47.47,0,0,1,.36-.16,1.32,1.32,0,0,1,.31,0,.8.8,0,0,0,.29.05.38.38,0,0,0,.37-.18.81.81,0,0,0,.1-.36,1.23,1.23,0,0,0-.56-1A4.64,4.64,0,0,0,2.77,9.2a4.15,4.15,0,0,0-1.25-.26c-.35,0-.58.09-.68.26a1.1,1.1,0,0,0-.14.52,1.71,1.71,0,0,0,.28,1,3.29,3.29,0,0,0,.65.73v.64A4.37,4.37,0,0,1,.5,10.88,3,3,0,0,1,0,9.2,1.82,1.82,0,0,1,.4,7.94,1.44,1.44,0,0,1,1.5,7.5,3.5,3.5,0,0,1,3.17,8a3.74,3.74,0,0,1,1.41,1.3,3.24,3.24,0,0,1,.56,1.84,1.89,1.89,0,0,1-.1.65,1.65,1.65,0,0,1-.27.47,1.14,1.14,0,0,1-.4.3A1.06,1.06,0,0,1,3.91,12.63Z"/><path class="cls-1" d="M4.37,19.42a1.07,1.07,0,0,1-.65-.21.63.63,0,0,1-.29-.52.72.72,0,0,1,.31-.51c.13-.1.19-.19.19-.28s-.1-.25-.3-.43a5.25,5.25,0,0,0-.79-.57,11.83,11.83,0,0,0-1.13-.57,11.18,11.18,0,0,0-1.3-.48l-.24-.07V14.4l3.29.92a2.53,2.53,0,0,0,.66.15.27.27,0,0,0,.14-.05.13.13,0,0,0,.06-.12c0-.16-.1-.31-.32-.47a3.43,3.43,0,0,0-.58-.35v-.54a4.05,4.05,0,0,1,1,.7,2.17,2.17,0,0,1,.52.68,1.47,1.47,0,0,1,.15.6.6.6,0,0,1-.29.61,1.41,1.41,0,0,1-.58.14,6.29,6.29,0,0,1-1.6-.33c.38.22.69.4.92.55a6.87,6.87,0,0,1,.71.51,2.69,2.69,0,0,1,.6.62,1.11,1.11,0,0,1,.24.65.64.64,0,0,1-.26.6A1,1,0,0,1,4.37,19.42Z"/><path class="cls-1" d="M3.08,26.2A2.88,2.88,0,0,1,1.93,26a3,3,0,0,1-1-.67,3.12,3.12,0,0,1-.69-1A3.19,3.19,0,0,1,0,23a2.6,2.6,0,0,1,.27-1.21A1.84,1.84,0,0,1,1,21a2.12,2.12,0,0,1,1.1-.29,2.77,2.77,0,0,1,1.48.44A3.1,3.1,0,0,1,4.72,22.3a3.22,3.22,0,0,1,.42,1.61,2.59,2.59,0,0,1-.29,1.25,2,2,0,0,1-.75.78A2,2,0,0,1,3.08,26.2Zm.4-1.38a1.39,1.39,0,0,0,.86-.24.81.81,0,0,0,.31-.68,1.1,1.1,0,0,0-.33-.78,2.63,2.63,0,0,0-.82-.58,4.92,4.92,0,0,0-1-.34,3.75,3.75,0,0,0-.87-.12,1.39,1.39,0,0,0-.82.23A.74.74,0,0,0,.49,23a1.21,1.21,0,0,0,.32.82,2.5,2.5,0,0,0,.82.59,4.29,4.29,0,0,0,1,.34A3.82,3.82,0,0,0,3.48,24.82Z"/><path class="cls-1" d="M8.26,31.89,1.54,29.84a3.61,3.61,0,0,0-.63-.16.23.23,0,0,0-.15.05.14.14,0,0,0-.06.12c0,.11.09.25.27.43a2.17,2.17,0,0,0,.63.42v.55a5.15,5.15,0,0,1-1.07-.76A1.56,1.56,0,0,1,0,29.29a1,1,0,0,1,.24-.71.78.78,0,0,1,.59-.27,3.67,3.67,0,0,1,.89.18L6.6,30a2.84,2.84,0,0,0,.64.15A.26.26,0,0,0,7.51,30a2,2,0,0,0,.07-.62l.54.14v.63c0,.27,0,.51,0,.74a3.19,3.19,0,0,0,.12.63Z"/><path class="cls-1" d="M8.26,36.85,1.54,34.8a2.83,2.83,0,0,0-.63-.16.23.23,0,0,0-.15,0,.14.14,0,0,0-.06.12q0,.15.27.42a2.43,2.43,0,0,0,.63.43v.55a5.21,5.21,0,0,1-1.07-.77A1.56,1.56,0,0,1,0,34.24a1,1,0,0,1,.24-.7.78.78,0,0,1,.59-.27,3.67,3.67,0,0,1,.89.18L6.6,35a2.84,2.84,0,0,0,.64.15.26.26,0,0,0,.27-.17,2,2,0,0,0,.07-.62l.54.14v.62c0,.27,0,.52,0,.74a3.29,3.29,0,0,0,.12.64Z"/><polyline class="cls-2" points="3.05 43.59 3.05 95.53 9.25 89.28"/></g></g></svg>